<svg width="256" height="256" viewBox="0 0 256 256" xmlns="http://www.w3.org/2000/svg">
  <defs>
    <linearGradient id="bgGradient" x1="0%" y1="0%" x2="100%" y2="100%">
      <stop offset="0%" style="stop-color:#2563eb;stop-opacity:1" />
      <stop offset="100%" style="stop-color:#1d4ed8;stop-opacity:1" />
    </linearGradient>
    <linearGradient id="textGradient" x1="0%" y1="0%" x2="100%" y2="100%">
      <stop offset="0%" style="stop-color:#ffffff;stop-opacity:1" />
      <stop offset="100%" style="stop-color:#e5e7eb;stop-opacity:1" />
    </linearGradient>
  </defs>
  
  <!-- Background with rounded corners -->
  <rect x="16" y="16" width="224" height="224" rx="32" ry="32" fill="url(#bgGradient)" stroke="#1e40af" stroke-width="2"/>
  
  <!-- Document icon background -->
  <rect x="48" y="56" width="128" height="160" rx="8" ry="8" fill="#ffffff" opacity="0.95"/>
  
  <!-- Document lines -->
  <rect x="64" y="80" width="96" height="4" rx="2" fill="#6b7280"/>
  <rect x="64" y="96" width="80" height="4" rx="2" fill="#6b7280"/>
  <rect x="64" y="112" width="88" height="4" rx="2" fill="#6b7280"/>
  <rect x="64" y="128" width="72" height="4" rx="2" fill="#6b7280"/>
  <rect x="64" y="144" width="84" height="4" rx="2" fill="#6b7280"/>
  <rect x="64" y="160" width="76" height="4" rx="2" fill="#6b7280"/>
  <rect x="64" y="176" width="92" height="4" rx="2" fill="#6b7280"/>
  <rect x="64" y="192" width="68" height="4" rx="2" fill="#6b7280"/>
  
  <!-- MD text -->
  <text x="128" y="48" font-family="Arial, sans-serif" font-size="24" font-weight="bold" text-anchor="middle" fill="url(#textGradient)">MD</text>
  
  <!-- Markdown symbol -->
  <circle cx="192" cy="72" r="16" fill="#10b981" opacity="0.9"/>
  <text x="192" y="78" font-family="Arial, sans-serif" font-size="14" font-weight="bold" text-anchor="middle" fill="#ffffff">↓</text>
</svg>